<svg xmlns="http://www.w3.org/2000/svg" xmlns:xlink="http://www.w3.org/1999/xlink" width="50.309" height="11.495" viewBox="0 0 37.731192 8.6211858"><defs><symbol overflow="visible" id="a"><path d="M3.016-3.156h1.703c1.406 0 2.797-1.031 2.797-2.14 0-.782-.657-1.516-1.97-1.516H2.329c-.187 0-.297 0-.297.187 0 .125.078.125.281.125.126 0 .313.016.422.016.172.03.22.046.22.171 0 .032 0 .063-.032.188L1.578-.781c-.094.39-.11.469-.906.469-.156 0-.266 0-.266.187 0 .125.11.125.14.125.282 0 .985-.031 1.266-.031.22 0 .438.015.641.015.219 0 .438.016.64.016.079 0 .204 0 .204-.203 0-.11-.094-.11-.281-.11-.36 0-.641 0-.641-.171 0-.063.016-.11.031-.172zm.718-2.969c.094-.344.11-.375.547-.375h.953c.829 0 1.36.266 1.36.953 0 .39-.203 1.25-.594 1.61-.5.453-1.094.53-1.531.53H3.062zm0 0"/></symbol><symbol overflow="visible" id="d"><path d="M.875-.594c-.031.156-.094.39-.094.438 0 .172.14.265.297.265a.414.414 0 0 0 .375-.28c0-.016.125-.485.188-.735l.218-.89c.047-.235.11-.454.172-.673.031-.172.11-.469.125-.5.14-.312.672-1.219 1.625-1.219.453 0 .531.375.531.704 0 .25-.062.53-.14.828L3.89-1.5l-.204.75c-.03.203-.124.547-.124.594 0 .172.14.265.28.265.313 0 .376-.25.454-.562.14-.563.516-2.016.594-2.406.03-.125.562-1.329 1.656-1.329.422 0 .531.344.531.704 0 .562-.422 1.703-.625 2.234-.078.234-.125.344-.125.547 0 .469.344.812.813.812.937 0 1.312-1.453 1.312-1.53 0-.11-.094-.11-.125-.11-.094 0-.094.031-.14.187-.157.532-.47 1.235-1.016 1.235-.172 0-.25-.094-.25-.329 0-.25.094-.484.187-.703.188-.53.61-1.625.61-2.203 0-.64-.407-1.062-1.157-1.062-.734 0-1.25.437-1.625.968 0-.124-.03-.468-.312-.703-.25-.218-.563-.265-.813-.265-.906 0-1.39.64-1.562.875-.047-.578-.469-.875-.922-.875-.453 0-.64.39-.734.562a4.68 4.68 0 0 0-.297.969c0 .11.094.11.11.11.109 0 .109-.016.171-.235.172-.703.375-1.188.735-1.188.156 0 .296.079.296.454 0 .218-.03.328-.156.843zm0 0"/></symbol><symbol overflow="visible" id="b"><path d="M3.031-.563a3.35 3.35 0 0 0-.11.407c0 .156.126.218.235.218.14 0 .25-.078.281-.14a3.17 3.17 0 0 0 .126-.438c.03-.125.109-.453.156-.625.031-.156.078-.312.11-.468.077-.297.077-.313.218-.532.219-.343.578-.734 1.11-.734.39 0 .421.313.421.484 0 .422-.297 1.188-.422 1.485-.062.203-.093.265-.093.375 0 .375.296.594.656.594.703 0 1-.954 1-1.063 0-.094-.078-.094-.11-.094-.093 0-.093.047-.125.125-.156.563-.468.844-.734.844-.156 0-.188-.094-.188-.25s.047-.25.172-.563c.079-.218.36-.953.36-1.343 0-.11 0-.406-.25-.61a1.17 1.17 0 0 0-.657-.187c-.625 0-1 .422-1.234.703-.047-.594-.547-.703-.906-.703-.578 0-.969.36-1.172.64-.047-.484-.453-.64-.75-.64s-.453.219-.547.375c-.156.265-.25.656-.25.703 0 .078.094.078.125.078.094 0 .094-.016.14-.203.11-.406.25-.75.516-.75.188 0 .235.156.235.344 0 .125-.063.39-.125.578-.047.187-.11.469-.14.625l-.235.89C.828-.344.78-.171.78-.156c0 .156.125.218.235.218a.377.377 0 0 0 .28-.14c.032-.063.079-.297.126-.438.031-.125.11-.453.14-.625.047-.156.094-.312.125-.468.079-.282.094-.344.297-.625.188-.282.516-.641 1.047-.641.39 0 .406.36.406.484 0 .172-.015.266-.124.657zm0 0"/></symbol><symbol overflow="visible" id="c"><path d="M6.844-3.266c.156 0 .343 0 .343-.187 0-.203-.187-.203-.328-.203H.891c-.141 0-.329 0-.329.203 0 .187.188.187.329.187zm.015 1.938c.141 0 .329 0 .329-.203 0-.188-.188-.188-.344-.188H.89c-.141 0-.329 0-.329.188 0 .203.188.203.329.203zm0 0"/></symbol><symbol overflow="visible" id="e"><path d="M1.531-2.078l.375-4.547a.51.51 0 0 0-.515-.516c-.266 0-.532.188-.532.516l.391 4.531c0 .156.016.235.14.235.094 0 .126-.047.141-.22zm.375 1.547a.534.534 0 0 0-.515-.531.537.537 0 0 0-.532.53.524.524 0 1 0 1.047 0zm0 0"/></symbol></defs><use xlink:href="#a" x=".245" y="7.718" width="100%" height="100%" transform="translate(-.42 1.127) scale(.64632)"/><use xlink:href="#b" x="6.644" y="9.212" width="100%" height="100%" transform="translate(-.42 1.127) scale(.64632)"/><use xlink:href="#c" x="16.976" y="7.718" width="100%" height="100%" transform="translate(-.42 1.127) scale(.64632)"/><use xlink:href="#d" x="27.488" y="7.718" width="100%" height="100%" transform="translate(-.42 1.127) scale(.64632)"/><use xlink:href="#e" x="36.236" y="7.718" width="100%" height="100%" transform="translate(-.42 1.127) scale(.64632)"/></svg>